PathFileType	4	(X/Y/Z)	C:\Users\WrightLab\Desktop\Jo\P2_Trial23.trc
DataRate	CameraRate	NumFrames	NumMarkers	Units	OrigDataRate	OrigDataStartFrame	OrigNumFrames
100.00	100.00	      10	19	mm	100.00	913	      1217
Frame#	Time	Headset_Front			Headset_Back			Headset_Left			Headset_Right			Left_Shoulder			Right_Shoulder			Sternum			C7			Left Elbow			Right Elbow			Left Wrist			Right Wrist			Left ASIS			Right ASIS			S2			Left Knee			Right Knee			Left Ankle			Right Ankle			
		X1	Y1	Z1	X2	Y2	Z2	X3	Y3	Z3	X4	Y4	Z4	X5	Y5	Z5	X6	Y6	Z6	X7	Y7	Z7	X8	Y8	Z8	X9	Y9	Z9	X10	Y10	Z10	X11	Y11	Z11	X12	Y12	Z12	X13	Y13	Z13	X14	Y14	Z14	X15	Y15	Z15	X16	Y16	Z16	X17	Y17	Z17	X18	Y18	Z18	X19	Y19	Z19	

913	9.120	-292.99652	1351.10669	75.07670	-264.54999	1648.33374	153.25314	-355.20264	1508.76208	200.03868	-200.23640	1464.67737	36.62955	-250.87376	1481.49829	381.88840	-71.62872	1420.02307	116.26395	-203.24789	1318.73425	248.65776	-57.98430	1467.93311	297.21387	-278.67514	1146.42139	517.51971	68.75958	1107.03235	98.18169	-314.72516	923.58789	565.57538	92.49624	858.57098	51.05785	-242.86610	1058.60449	340.26517	-172.90813	1012.72919	232.74222	3.08233	995.48413	447.93924	-245.66040	506.25201	575.63989	19.53093	541.94189	255.46570	-259.72357	149.74477	578.64185	3.37288	104.49423	279.89529	
914	9.130	-293.72183	1350.80127	74.11966	-265.54285	1648.42297	152.55579	-356.78384	1508.76123	199.08389	-201.26801	1464.97876	35.14308	-252.24516	1480.97668	380.92023	-72.41570	1420.06067	115.93999	-204.10530	1318.21985	247.86021	-59.30854	1467.73450	296.75485	-279.43848	1146.00403	516.81433	68.36359	1106.96143	98.15238	-315.57709	923.49530	564.96167	92.26393	858.25763	51.36014	-243.34172	1058.08569	339.55331	-173.22810	1012.69482	232.18861	3.05854	995.49042	447.92120	-247.06383	506.29147	574.80035	19.76327	541.86676	254.77493	-260.12326	149.38495	578.79974	3.37288	104.49423	279.89529	
915	9.140	-294.54980	1350.62671	72.85963	-266.71951	1648.65479	152.07411	-357.43149	1508.28015	197.75491	-201.71513	1464.52673	33.37875	-253.30530	1480.86169	380.26257	-73.21244	1419.74512	115.48289	-205.13055	1317.80444	247.12956	-60.30048	1467.65100	296.13211	-280.47070	1145.38953	516.05145	67.79512	1106.71533	98.07042	-316.68674	922.93481	564.12976	91.82534	858.04907	51.15084	-243.85503	1057.84900	339.04147	-173.72780	1012.76422	231.49144	2.82752	995.82098	447.08945	-247.89690	505.50507	574.05341	19.86854	541.76123	254.51350	-260.94760	149.07835	579.02734	2.82920	104.70992	279.33447	
916	9.150	-295.75195	1350.60010	72.10470	-267.94333	1648.26563	151.54108	-358.80710	1508.14526	197.03619	-202.29527	1464.00977	33.28148	-254.80122	1480.26501	379.22241	-74.74483	1419.45471	114.00726	-206.11592	1317.47803	246.38538	-61.83764	1467.63208	295.61984	-282.00949	1145.17346	515.53369	67.16007	1106.57227	97.80633	-317.92935	922.31177	564.02588	91.61419	857.94421	51.27237	-243.99884	1057.20715	337.62497	-173.88586	1012.17639	230.48430	2.10280	995.66071	445.93552	-249.18596	504.97141	573.70886	20.28284	542.10254	254.54219	-261.36020	148.75211	579.12488	2.82920	104.70992	279.33447	
917	9.160	-296.86026	1350.44666	71.06660	-268.84348	1647.81567	150.83199	-359.90021	1507.96228	196.28320	-203.16089	1463.56250	32.02966	-256.64682	1479.91028	378.79749	-75.32714	1419.63708	113.41209	-206.90556	1317.03491	245.50041	-62.94347	1467.13928	295.11276	-282.39685	1144.49658	514.25574	66.64333	1106.68872	97.60311	-319.06812	922.07062	562.97498	91.55687	857.81470	51.21513	-244.58783	1056.73352	336.98480	-174.12791	1011.74371	229.78279	1.87931	995.41748	445.61505	-251.30473	504.10922	572.93604	20.58229	542.43329	253.65448	-262.51569	147.51311	578.91901	2.87622	105.02560	278.75195	
918	9.170	-297.85367	1350.12805	70.39748	-270.03644	1647.40942	150.50841	-361.13062	1507.52979	195.44597	-204.65483	1463.03516	30.98435	-258.79489	1479.14795	376.01434	-75.97414	1419.43542	113.44022	-207.97540	1316.66870	244.70673	-64.36053	1467.02136	294.84512	-283.20285	1143.65198	513.37622	65.81381	1106.99231	96.81541	-319.72617	921.57306	562.04651	90.66557	857.91614	50.52397	-245.42833	1055.85889	336.51611	-174.66898	1011.43958	228.86766	1.29489	994.67474	444.94330	-253.02687	503.91745	572.35425	21.60807	542.47864	253.38145	-263.40134	147.04518	579.01770	2.20637	104.24920	277.72745	
919	9.180	-299.28439	1349.68628	69.33636	-271.12399	1647.11963	149.89760	-362.54611	1507.13379	194.65154	-205.35892	1463.05676	30.76554	-259.28448	1478.58167	377.08740	-76.71516	1419.13806	113.20850	-209.10663	1316.29675	244.12196	-65.55007	1466.82922	294.42532	-284.26901	1143.07495	512.69812	65.46793	1106.87195	96.80886	-320.00787	921.03241	560.59497	90.45754	857.81934	50.33311	-245.95045	1055.45081	335.68494	-175.12642	1011.43750	227.90062	0.79932	994.45428	444.26010	-254.66542	503.38547	572.01367	21.32347	542.43951	252.92938	-264.29376	146.77899	578.97150	2.38218	104.70075	277.44348	
920	9.190	-299.97754	1349.14905	68.42431	-272.10379	1646.46667	149.15735	-364.10864	1506.70972	193.66621	-206.24989	1462.60120	30.44320	-260.37222	1478.29333	376.68314	-78.42276	1419.08313	111.71040	-210.10809	1315.93103	243.23627	-67.10553	1466.11108	293.21979	-285.21710	1142.49036	511.81213	64.13466	1106.67261	96.87046	-321.28943	920.04010	559.91870	90.05755	857.90820	50.13232	-246.41327	1055.03711	334.73102	-175.55490	1011.19641	227.34984	-0.37015	993.80688	442.83139	-256.53403	502.94635	571.31293	21.45932	542.12494	252.01643	-265.80685	146.81151	579.11798	2.41814	104.33141	277.36142	
921	9.200	-300.66220	1348.65527	67.85310	-273.68018	1646.24951	148.46855	-365.00519	1506.10510	192.58365	-207.02487	1461.84021	30.39465	-262.10516	1477.31079	376.07877	-79.34328	1419.32434	111.64618	-211.01164	1315.64563	242.40413	-68.20703	1466.53906	293.46472	-286.59323	1141.65051	511.39438	63.24075	1106.84509	95.94668	-322.18698	919.72815	558.77185	89.67290	858.06006	49.67770	-246.76643	1054.54407	333.51221	-176.06984	1010.78650	226.03705	-1.17116	993.44745	441.85632	-258.52087	502.51486	570.54926	21.12078	542.09595	251.27411	-268.10822	145.57181	578.93176	2.11189	103.80781	277.12143	
922	9.210	-301.32062	1348.02820	67.00054	-274.76044	1645.67480	147.72148	-366.10791	1505.57861	191.78928	-208.34218	1462.02173	28.97873	-263.81845	1476.61475	375.67459	-80.36353	1419.43994	112.03575	-212.39473	1315.17700	242.05592	-69.55897	1466.11694	292.94470	-288.26895	1141.36060	510.70053	62.76010	1107.04553	95.67210	-322.89279	918.81335	557.34393	89.12424	858.41199	49.55708	-247.63203	1054.31946	332.64627	-176.58124	1010.78400	224.78918	-1.68063	993.14746	441.40906	-260.67719	501.88623	570.38879	21.22151	541.43976	250.36545	-270.00067	145.75552	578.73431	2.63153	103.92052	276.83493	
